{
 "cells": [
  {
   "cell_type": "markdown",
   "metadata": {},
   "source": [
    "## Minian reduced\n",
    "\n",
    "# Load packages"
   ]
  },
  {
   "cell_type": "code",
   "execution_count": 12,
   "metadata": {},
   "outputs": [],
   "source": [
    "%%capture\n",
    "%load_ext autoreload\n",
    "%autoreload 2\n",
    "import itertools as itt\n",
    "import os\n",
    "import sys\n",
    "\n",
    "import holoviews as hv\n",
    "import numpy as np\n",
    "import xarray as xr\n",
    "from dask.distributed import Client, LocalCluster\n",
    "from holoviews.operation.datashader import datashade, regrid\n",
    "from holoviews.util import Dynamic\n",
    "from IPython.core.display import display\n",
    "\n"
   ]
  },
  {
   "cell_type": "markdown",
   "metadata": {},
   "source": [
    "# Initial parameters"
   ]
  },
  {
   "cell_type": "code",
   "execution_count": 19,
   "metadata": {},
   "outputs": [],
   "source": [
    "# Set up Initial Basic Parameters#\n",
    "minian_path = \".\"\n",
    "dpath = \"/Users/ahay/Documents/DATA/L1imaging/Gaelle/Baseline_recording/BlackLinesOK/test/V4_Miniscope/\"\n",
    "minian_ds_path = os.path.join(dpath, \"minian\")\n",
    "intpath = \"/Users/ahay/Documents/DATA/L1imaging/Gaelle/Baseline_recording/BlackLinesOK/test/V4_Miniscope/minian_intermediate\"\n",
    "subset = dict(frame=slice(0, None))\n",
    "subset_mc = None\n",
    "interactive = True\n",
    "output_size = 100\n",
    "n_workers = int(os.getenv(\"MINIAN_NWORKERS\", 4))\n",
    "param_save_minian = {\n",
    "    \"dpath\": minian_ds_path,\n",
    "    \"meta_dict\": dict(session=-1, animal=-2),\n",
    "    \"overwrite\": True,\n",
    "}\n",
    "\n",
    "# Pre-processing Parameters#\n",
    "param_load_videos = {\n",
    "    \"pattern\": \"[0-9]+\\.avi$\",\n",
    "    \"dtype\": np.uint8,\n",
    "    \"downsample\": dict(frame=1, height=1, width=1),\n",
    "    \"downsample_strategy\": \"subset\",\n",
    "}\n",
    "param_denoise = {\"method\": \"median\", \"ksize\": 5}\n",
    "param_background_removal = {\"method\": \"tophat\", \"wnd\": 15}\n",
    "\n",
    "# Motion Correction Parameters#\n",
    "subset_mc = None\n",
    "param_estimate_motion = {\"dim\": \"frame\"}\n",
    "\n",
    "# Initialization Parameters#\n",
    "param_seeds_init = {\n",
    "    \"wnd_size\": 100,\n",
    "    \"method\": \"rolling\",\n",
    "    \"stp_size\": 50,\n",
    "    \"max_wnd\": 20,#generally 10 updated here to 20 to account for L1 wide dendritic trees\n",
    "    \"diff_thres\": 3,\n",
    "}\n",
    "param_pnr_refine = {\"noise_freq\": 0.06, \"thres\": 1}\n",
    "param_ks_refine = {\"sig\": 0.05}\n",
    "param_seeds_merge = {\"thres_dist\": 10, \"thres_corr\": 0.8, \"noise_freq\": 0.06}\n",
    "param_initialize = {\"thres_corr\": 0.8, \"wnd\": 10, \"noise_freq\": 0.06} \n",
    "param_init_merge = {\"thres_corr\": 0.8}\n",
    "\n",
    "# CNMF Parameters# 0.025 for threecolordots\n",
    "param_get_noise = {\"noise_range\": (0.06, 0.5)}\n",
    "param_first_spatial = {\n",
    "    \"dl_wnd\": 15,\n",
    "    \"sparse_penal\": 0.012,\n",
    "    \"size_thres\": (25, None),\n",
    "}\n",
    "param_first_temporal = {\n",
    "    \"noise_freq\": 0.06,\n",
    "    \"sparse_penal\": 1,\n",
    "    \"p\": 1,\n",
    "    \"add_lag\": 20,\n",
    "    \"jac_thres\": 0.2,\n",
    "}\n",
    "param_first_merge = {\"thres_corr\": 0.8}\n",
    "param_second_spatial = {\n",
    "    \"dl_wnd\": 10,\n",
    "    \"sparse_penal\": 0.005,\n",
    "    \"size_thres\": (25, None),\n",
    "}\n",
    "param_second_temporal = {\n",
    "    \"noise_freq\": 0.06,\n",
    "    \"sparse_penal\": 1,\n",
    "    \"p\": 1,\n",
    "    \"add_lag\": 20,\n",
    "    \"jac_thres\": 0.4,\n",
    "}\n",
    "\n",
    "os.environ[\"OMP_NUM_THREADS\"] = \"1\"\n",
    "os.environ[\"MKL_NUM_THREADS\"] = \"1\"\n",
    "os.environ[\"OPENBLAS_NUM_THREADS\"] = \"1\"\n",
    "os.environ[\"MINIAN_INTERMEDIATE\"] = intpath"
   ]
  },
  {
   "cell_type": "markdown",
   "metadata": {},
   "source": [
    "# start cluster"
   ]
  },
  {
   "cell_type": "code",
   "execution_count": 15,
   "metadata": {},
   "outputs": [],
   "source": [
    "%%capture\n",
    "\n",
    "sys.path.append(minian_path)\n",
    "from minian.cnmf import (\n",
    "    compute_AtC,\n",
    "    compute_trace,\n",
    "    get_noise_fft,\n",
    "    smooth_sig,\n",
    "    unit_merge,\n",
    "    update_spatial,\n",
    "    update_temporal,\n",
    "    update_background,\n",
    ")\n",
    "from minian.initialization import (\n",
    "    gmm_refine,\n",
    "    initA,\n",
    "    initC,\n",
    "    intensity_refine,\n",
    "    ks_refine,\n",
    "    pnr_refine,\n",
    "    seeds_init,\n",
    "    seeds_merge,\n",
    ")\n",
    "from minian.motion_correction import apply_transform, estimate_motion\n",
    "from minian.preprocessing import denoise, remove_background\n",
    "from minian.utilities import (\n",
    "    TaskAnnotation,\n",
    "    get_optimal_chk,\n",
    "    load_videos,\n",
    "    open_minian,\n",
    "    save_minian,\n",
    ")\n",
    "from minian.visualization import (\n",
    "    CNMFViewer,\n",
    "    VArrayViewer,\n",
    "    generate_videos,\n",
    "    visualize_gmm_fit,\n",
    "    visualize_motion,\n",
    "    visualize_preprocess,\n",
    "    visualize_seeds,\n",
    "    visualize_spatial_update,\n",
    "    visualize_temporal_update,\n",
    "    write_video,\n",
    ")\n",
    "\n",
    "dpath = os.path.abspath(dpath)\n",
    "hv.notebook_extension(\"bokeh\", width=100)\n",
    "\n",
    "cluster = LocalCluster(\n",
    "    n_workers=n_workers,\n",
    "    memory_limit=\"2GB\",\n",
    "    resources={\"MEM\": 1},\n",
    "    threads_per_worker=2,\n",
    "    dashboard_address=\":8787\",\n",
    ")\n",
    "annt_plugin = TaskAnnotation()\n",
    "cluster.scheduler.add_plugin(annt_plugin)\n",
    "client = Client(cluster)\n"
   ]
  },
  {
   "cell_type": "markdown",
   "metadata": {},
   "source": [
    "# Pre-processing"
   ]
  },
  {
   "cell_type": "code",
   "execution_count": 25,
   "metadata": {},
   "outputs": [
    {
     "name": "stdout",
     "output_type": "stream",
     "text": [
      "loading 11 videos in folder /Users/ahay/Documents/DATA/L1imaging/Gaelle/Baseline_recording/BlackLinesOK/test/V4_Miniscope\n"
     ]
    },
    {
     "name": "stderr",
     "output_type": "stream",
     "text": [
      "ffmpeg version 4.2.3 Copyright (c) 2000-2020 the FFmpeg developers\n",
      "  built with clang version 9.0.1\n",
      "  configuration: --prefix=/opt/anaconda3/envs/minian --cc=x86_64-apple-darwin13.4.0-clang --disable-doc --disable-openssl --enable-avresample --enable-gnutls --enable-gpl --enable-hardcoded-tables --enable-libfreetype --enable-libopenh264 --enable-libx264 --enable-pic --enable-pthreads --enable-shared --enable-static --enable-version3 --enable-zlib --enable-libmp3lame\n",
      "  libavutil      56. 31.100 / 56. 31.100\n",
      "  libavcodec     58. 54.100 / 58. 54.100\n",
      "  libavformat    58. 29.100 / 58. 29.100\n",
      "  libavdevice    58.  8.100 / 58.  8.100\n",
      "  libavfilter     7. 57.100 /  7. 57.100\n",
      "ffmpeg version 4.2.3  libavresample   4.  0.  0 /  4.  0.  0\n",
      " Copyright (c) 2000-2020 the FFmpeg developers\n",
      "  built with clang version 9.0.1\n",
      "  configuration: --prefix=/opt/anaconda3/envs/minian --cc=x86_64-apple-darwin13.4.0-clang --disable-doc --disable-openssl --enable-avresample --enable-gnutls --enable-gpl --enable-hardcoded-tables --enable-libfreetype --enable-libopenh264 --enable-libx264 --enable-pic --enable-pthreads --enable-shared --enable-static --enable-version3 --enable-zlib --enable-libmp3lame\n",
      "  libavutil      56. 31.100 / 56. 31.100\n",
      "  libavcodec     58. 54.100 / 58. 54.100\n",
      "  libavformat    58. 29.100 / 58. 29.100\n",
      "  libavdevice    58.  8.100 / 58.  8.100\n",
      "  libavfilter     7. 57.100 /  7. 57.100\n",
      "  libavresample   4.  0.  0 /  4.  0.  0\n",
      "  libswscale      5.  5.100 /  5.  5.100\n",
      "  libswresample   3.  5.100 /  3.  5.100\n",
      "  libpostproc    55.  5.100 / 55.  5.100\n",
      "  libswscale      5.  5.100 /  5.  5.100\n",
      "  libswresample   3.  5.100 /  3.  5.100\n",
      "  libpostproc    55.  5.100 / 55.  5.100\n",
      "ffmpeg version 4.2.3 Copyright (c) 2000-2020 the FFmpeg developers\n",
      "  built with clang version 9.0.1\n",
      "  configuration: --prefix=/opt/anaconda3/envs/minian --cc=x86_64-apple-darwin13.4.0-clang --disable-doc --disable-openssl --enable-avresample --enable-gnutls --enable-gpl --enable-hardcoded-tables --enable-libfreetype --enable-libopenh264 --enable-libx264 --enable-pic --enable-pthreads --enable-shared --enable-static --enable-version3 --enable-zlib --enable-libmp3lame\n",
      "ffmpeg version 4.2.3  libavutil      56. 31.100 / 56. 31.100\n",
      " Copyright (c) 2000-2020 the FFmpeg developers\n",
      "  libavcodec     58. 54.100 / 58. 54.100\n",
      "  built with clang version 9.0.1\n",
      "  libavformat    58. 29.100 / 58. 29.100\n",
      "  configuration: --prefix=/opt/anaconda3/envs/minian --cc=x86_64-apple-darwin13.4.0-clang --disable-doc --disable-openssl --enable-avresample --enable-gnutls --enable-gpl --enable-hardcoded-tables --enable-libfreetype --enable-libopenh264 --enable-libx264 --enable-pic --enable-pthreads --enable-shared --enable-static --enable-version3 --enable-zlib --enable-libmp3lame\n",
      "  libavdevice    58.  8.100 / 58.  8.100\n",
      "  libavfilter     7. 57.100 /  7. 57.100\n",
      "  libavresample   4.  0.  0 /  4.  0.  0\n",
      "  libavutil      56. 31.100 / 56. 31.100\n",
      "  libavcodec     58. 54.100 / 58. 54.100\n",
      "  libavformat    58. 29.100 / 58. 29.100\n",
      "  libavdevice    58.  8.100 / 58.  8.100\n",
      "  libavfilter     7. 57.100 /  7. 57.100\n",
      "  libavresample   4.  0.  0 /  4.  0.  0\n",
      "  libswscale      5.  5.100 /  5.  5.100\n",
      "  libswresample   3.  5.100 /  3.  5.100\n",
      "  libpostproc    55.  5.100 / 55.  5.100\n",
      "  libswscale      5.  5.100 /  5.  5.100\n",
      "  libswresample   3.  5.100 /  3.  5.100\n",
      "  libpostproc    55.  5.100 / 55.  5.100\n",
      "Input #0, avi, from '/Users/ahay/Documents/DATA/L1imaging/Gaelle/Baseline_recording/BlackLinesOK/test/V4_Miniscope/10.avi':\n",
      "  Metadata:\n",
      "    encoder         : Lavf58.29.100\n",
      "  Duration: 00:00:16.67, start: 0.000000, bitrate: 5983 kb/s\n",
      "    Stream #0:0: Video: mjpeg (Baseline) (MJPG / 0x47504A4D), yuvj420p(pc, bt470bg/unknown/unknown), 600x600, 5972 kb/s, 60 fps, 60 tbr, 60 tbn, 60 tbc\n",
      "Input #0, avi, from '/Users/ahay/Documents/DATA/L1imaging/Gaelle/Baseline_recording/BlackLinesOK/test/V4_Miniscope/2.avi':\n",
      "Input #0, avi, from '/Users/ahay/Documents/DATA/L1imaging/Gaelle/Baseline_recording/BlackLinesOK/test/V4_Miniscope/0.avi':\n",
      "  Metadata:\n",
      "    encoder         :   Metadata:\n",
      "Lavf58.29.100    encoder         : \n",
      "Lavf58.29.100  Duration: \n",
      "  Duration: 00:00:16.67, start: 00:00:16.670.000000, start: , bitrate: 0.0000006062 kb/s, bitrate: \n",
      "5662 kb/s\n",
      "    Stream #0:0    Stream #0:0: Video: mjpeg (Baseline) (MJPG / 0x47504A4D), yuvj420p(pc, bt470bg/unknown/unknown), 600x600, 5651 kb/s: Video: mjpeg (Baseline) (MJPG / 0x47504A4D), yuvj420p(pc, bt470bg/unknown/unknown), 600x600, 6050 kb/s, , 60 fps, 60 tbr, 60 tbn, 60 tbc\n",
      "60 fps, 60 tbr, 60 tbn, 60 tbc\n",
      "Input #0, avi, from '/Users/ahay/Documents/DATA/L1imaging/Gaelle/Baseline_recording/BlackLinesOK/test/V4_Miniscope/1.avi':\n",
      "  Metadata:\n",
      "    encoder         : Lavf58.29.100\n",
      "  Duration: 00:00:16.67, start: 0.000000, bitrate: 5885 kb/s\n",
      "    Stream #0:0: Video: mjpeg (Baseline) (MJPG / 0x47504A4D), yuvj420p(pc, bt470bg/unknown/unknown), 600x600, 5874 kb/s, 60 fps, 60 tbr, 60 tbn, 60 tbc\n",
      "Stream mapping:\n",
      "Stream mapping:\n",
      "  Stream #0:0 -> #0:0  Stream #0:0 -> #0:0 (mjpeg (native) -> rawvideo (native))\n",
      " (mjpeg (native) -> rawvideo (native))\n",
      "Press [q] to stop, [?] for help\n",
      "Stream mapping:\n",
      "  Stream #0:0 -> #0:0Stream mapping:\n",
      " (mjpeg (native) -> rawvideo (native))\n",
      "  Stream #0:0 -> #0:0 (mjpeg (native) -> rawvideo (native))Press [q] to stop, [?] for help\n",
      "\n",
      "Press [q] to stop, [?] for help\n",
      "Press [q] to stop, [?] for help\n",
      "[swscaler @ 0x7feac8008000] deprecated pixel format used, make sure you did set range correctly\n",
      "[swscaler @ 0x7f95f0008000] deprecated pixel format used, make sure you did set range correctly\n",
      "[swscaler @ 0x7fe340008000] deprecated pixel format used, make sure you did set range correctly\n",
      "[swscaler @ 0x7fb6e0098000] deprecated pixel format used, make sure you did set range correctly\n",
      "Output #0, rawvideo, to 'pipe:':\n",
      "Output #0, rawvideo, to 'pipe:':\n",
      "  Metadata:\n",
      "    encoder         : Lavf58.29.100\n",
      "Output #0, rawvideo, to 'pipe:':\n",
      "  Metadata:\n",
      "    encoder         : Lavf58.29.100\n",
      "Output #0, rawvideo, to 'pipe:':\n",
      "  Metadata:\n",
      "    encoder         : Lavf58.29.100\n",
      "  Metadata:\n",
      "    encoder         : Lavf58.29.100\n",
      "    Stream #0:0: Video: rawvideo (Y800 / 0x30303859), gray, 600x600, q=2-31, 172800 kb/s, 60 fps, 60 tbn, 60 tbc\n",
      "    Metadata:\n",
      "      encoder         : Lavc58.54.100 rawvideo\n",
      "    Stream #0:0: Video: rawvideo (Y800 / 0x30303859), gray, 600x600, q=2-31, 172800 kb/s, 60 fps, 60 tbn, 60 tbc\n",
      "    Metadata:\n",
      "      encoder         : Lavc58.54.100 rawvideo\n",
      "    Stream #0:0: Video: rawvideo (Y800 / 0x30303859), gray, 600x600, q=2-31, 172800 kb/s, 60 fps, 60 tbn, 60 tbc\n",
      "    Metadata:\n",
      "      encoder         : Lavc58.54.100 rawvideo\n",
      "    Stream #0:0: Video: rawvideo (Y800 / 0x30303859), gray, 600x600, q=2-31, 172800 kb/s, 60 fps, 60 tbn, 60 tbc\n",
      "    Metadata:\n",
      "      encoder         : Lavc58.54.100 rawvideo\n",
      "frame= 1000 fps=892 q=-0.0 Lsize=  351562kB time=00:00:16.66 bitrate=172800.0kbits/s speed=14.9x    \n",
      "video:351562kB audio:0kB subtitle:0kB other streams:0kB global headers:0kB muxing overhead: 0.000000%\n",
      "frame= 1000 fps=889 q=-0.0 Lsize=  351562kB time=00:00:16.66 bitrate=172800.0kbits/s speed=14.8x    \n",
      "video:351562kB audio:0kB subtitle:0kB other streams:0kB global headers:0kB muxing overhead: 0.000000%\n",
      "frame= 1000 fps=888 q=-0.0 Lsize=  351562kB time=00:00:16.66 bitrate=172800.0kbits/s speed=14.8x    \n",
      "video:351562kB audio:0kB subtitle:0kB other streams:0kB global headers:0kB muxing overhead: 0.000000%\n",
      "frame= 1000 fps=884 q=-0.0 Lsize=  351562kB time=00:00:16.66 bitrate=172800.0kbits/s speed=14.7x    \n",
      "video:351562kB audio:0kB subtitle:0kB other streams:0kB global headers:0kB muxing overhead: 0.000000%\n",
      "ffmpeg version 4.2.3 Copyright (c) 2000-2020 the FFmpeg developers\n",
      "  built with clang version 9.0.1\n",
      "  configuration: --prefix=/opt/anaconda3/envs/minian --cc=x86_64-apple-darwin13.4.0-clang --disable-doc --disable-openssl --enable-avresample --enable-gnutls --enable-gpl --enable-hardcoded-tables --enable-libfreetype --enable-libopenh264 --enable-libx264 --enable-pic --enable-pthreads --enable-shared --enable-static --enable-version3 --enable-zlib --enable-libmp3lame\n",
      "ffmpeg version 4.2.3 Copyright (c) 2000-2020 the FFmpeg developers\n",
      "  built with clang version 9.0.1\n",
      "  configuration: --prefix=/opt/anaconda3/envs/minian --cc=x86_64-apple-darwin13.4.0-clang --disable-doc --disable-openssl --enable-avresample --enable-gnutls --enable-gpl --enable-hardcoded-tables --enable-libfreetype --enable-libopenh264 --enable-libx264 --enable-pic --enable-pthreads --enable-shared --enable-static --enable-version3 --enable-zlib --enable-libmp3lame\n",
      "  libavutil      56. 31.100 / 56. 31.100\n",
      "  libavcodec     58. 54.100 / 58. 54.100\n",
      "  libavformat    58. 29.100 / 58. 29.100\n",
      "  libavdevice    58.  8.100 / 58.  8.100\n",
      "  libavfilter     7. 57.100 /  7. 57.100\n",
      "  libavresample   4.  0.  0 /  4.  0.  0\n",
      "  libswscale      5.  5.100 /  5.  5.100\n",
      "  libswresample   3.  5.100 /  3.  5.100\n",
      "  libpostproc    55.  5.100 / 55.  5.100\n",
      "  libavutil      56. 31.100 / 56. 31.100\n",
      "  libavcodec     58. 54.100 / 58. 54.100\n",
      "  libavformat    58. 29.100 / 58. 29.100\n",
      "  libavdevice    58.  8.100 / 58.  8.100\n",
      "  libavfilter     7. 57.100 /  7. 57.100\n",
      "  libavresample   4.  0.  0 /  4.  0.  0\n",
      "  libswscale      5.  5.100 /  5.  5.100\n",
      "  libswresample   3.  5.100 /  3.  5.100\n",
      "  libpostproc    55.  5.100 / 55.  5.100\n",
      "Input #0, avi, from '/Users/ahay/Documents/DATA/L1imaging/Gaelle/Baseline_recording/BlackLinesOK/test/V4_Miniscope/4.avi':\n",
      "  Metadata:\n",
      "    encoder         : Lavf58.29.100\n",
      "  Duration: 00:00:16.67, start: 0.000000, bitrate: 6518 kb/s\n",
      "    Stream #0:0: Video: mjpeg (Baseline) (MJPG / 0x47504A4D), yuvj420p(pc, bt470bg/unknown/unknown), 600x600, 6507 kb/s, 60 fps, 60 tbr, 60 tbn, 60 tbc\n",
      "Stream mapping:\n",
      "  Stream #0:0 -> #0:0 (mjpeg (native) -> rawvideo (native))\n",
      "Press [q] to stop, [?] for help\n",
      "ffmpeg version 4.2.3 Copyright (c) 2000-2020 the FFmpeg developers\n",
      "  built with clang version 9.0.1\n",
      "  configuration: --prefix=/opt/anaconda3/envs/minian --cc=x86_64-apple-darwin13.4.0-clang --disable-doc --disable-openssl --enable-avresample --enable-gnutls --enable-gpl --enable-hardcoded-tables --enable-libfreetype --enable-libopenh264 --enable-libx264 --enable-pic --enable-pthreads --enable-shared --enable-static --enable-version3 --enable-zlib --enable-libmp3lame\n",
      "  libavutil      56. 31.100 / 56. 31.100\n",
      "  libavcodec     58. 54.100 / 58. 54.100\n",
      "  libavformat    58. 29.100 / 58. 29.100\n",
      "  libavdevice    58.  8.100 / 58.  8.100\n",
      "  libavfilter     7. 57.100 /  7. 57.100\n",
      "  libavresample   4.  0.  0 /  4.  0.  0\n",
      "  libswscale      5.  5.100 /  5.  5.100\n",
      "  libswresample   3.  5.100 /  3.  5.100\n",
      "  libpostproc    55.  5.100 / 55.  5.100\n",
      "Input #0, avi, from '/Users/ahay/Documents/DATA/L1imaging/Gaelle/Baseline_recording/BlackLinesOK/test/V4_Miniscope/3.avi':\n",
      "  Metadata:\n",
      "    encoder         : Lavf58.29.100\n",
      "  Duration: 00:00:16.67, start: 0.000000, bitrate: 6390 kb/s\n",
      "    Stream #0:0: Video: mjpeg (Baseline) (MJPG / 0x47504A4D), yuvj420p(pc, bt470bg/unknown/unknown), 600x600, 6379 kb/s, 60 fps, 60 tbr, 60 tbn, 60 tbc\n",
      "Stream mapping:\n",
      "  Stream #0:0 -> #0:0 (mjpeg (native) -> rawvideo (native))\n",
      "Press [q] to stop, [?] for help\n",
      "Input #0, avi, from '/Users/ahay/Documents/DATA/L1imaging/Gaelle/Baseline_recording/BlackLinesOK/test/V4_Miniscope/5.avi':\n",
      "  Metadata:\n",
      "    encoder         : Lavf58.29.100\n",
      "  Duration: 00:00:16.67, start: 0.000000, bitrate: 6484 kb/s\n",
      "    Stream #0:0: Video: mjpeg (Baseline) (MJPG / 0x47504A4D), yuvj420p(pc, bt470bg/unknown/unknown), 600x600, 6474 kb/s, 60 fps, 60 tbr, 60 tbn, 60 tbc\n",
      "Stream mapping:\n",
      "  Stream #0:0 -> #0:0 (mjpeg (native) -> rawvideo (native))\n",
      "Press [q] to stop, [?] for help\n",
      "[swscaler @ 0x7fc548008000] deprecated pixel format used, make sure you did set range correctly\n",
      "Output #0, rawvideo, to 'pipe:':\n",
      "  Metadata:\n",
      "    encoder         : Lavf58.29.100\n",
      "    Stream #0:0: Video: rawvideo (Y800 / 0x30303859), gray, 600x600, q=2-31, 172800 kb/s, 60 fps, 60 tbn, 60 tbc\n",
      "    Metadata:\n",
      "      encoder         : Lavc58.54.100 rawvideo\n",
      "[swscaler @ 0x7fe9e8098000] deprecated pixel format used, make sure you did set range correctly\n",
      "Output #0, rawvideo, to 'pipe:':\n",
      "  Metadata:\n",
      "    encoder         : Lavf58.29.100\n",
      "    Stream #0:0: Video: rawvideo (Y800 / 0x30303859), gray, 600x600, q=2-31, 172800 kb/s, 60 fps, 60 tbn, 60 tbc\n",
      "    Metadata:\n",
      "      encoder         : Lavc58.54.100 rawvideo\n",
      "[swscaler @ 0x7fa708008000] deprecated pixel format used, make sure you did set range correctly\n",
      "Output #0, rawvideo, to 'pipe:':\n",
      "  Metadata:\n",
      "    encoder         : Lavf58.29.100\n",
      "    Stream #0:0: Video: rawvideo (Y800 / 0x30303859), gray, 600x600, q=2-31, 172800 kb/s, 60 fps, 60 tbn, 60 tbc\n",
      "    Metadata:\n",
      "      encoder         : Lavc58.54.100 rawvideo\n",
      "ffmpeg version 4.2.3 Copyright (c) 2000-2020 the FFmpeg developers\n",
      "  built with clang version 9.0.1\n",
      "  configuration: --prefix=/opt/anaconda3/envs/minian --cc=x86_64-apple-darwin13.4.0-clang --disable-doc --disable-openssl --enable-avresample --enable-gnutls --enable-gpl --enable-hardcoded-tables --enable-libfreetype --enable-libopenh264 --enable-libx264 --enable-pic --enable-pthreads --enable-shared --enable-static --enable-version3 --enable-zlib --enable-libmp3lame\n",
      "  libavutil      56. 31.100 / 56. 31.100\n",
      "  libavcodec     58. 54.100 / 58. 54.100\n",
      "  libavformat    58. 29.100 / 58. 29.100\n",
      "  libavdevice    58.  8.100 / 58.  8.100\n",
      "  libavfilter     7. 57.100 /  7. 57.100\n",
      "  libavresample   4.  0.  0 /  4.  0.  0\n",
      "  libswscale      5.  5.100 /  5.  5.100\n",
      "  libswresample   3.  5.100 /  3.  5.100\n",
      "  libpostproc    55.  5.100 / 55.  5.100\n",
      "Input #0, avi, from '/Users/ahay/Documents/DATA/L1imaging/Gaelle/Baseline_recording/BlackLinesOK/test/V4_Miniscope/6.avi':\n",
      "  Metadata:\n",
      "    encoder         : Lavf58.29.100\n",
      "  Duration: 00:00:16.67, start: 0.000000, bitrate: 6430 kb/s\n",
      "    Stream #0:0: Video: mjpeg (Baseline) (MJPG / 0x47504A4D), yuvj420p(pc, bt470bg/unknown/unknown), 600x600, 6419 kb/s, 60 fps, 60 tbr, 60 tbn, 60 tbc\n",
      "Stream mapping:\n",
      "  Stream #0:0 -> #0:0 (mjpeg (native) -> rawvideo (native))\n",
      "Press [q] to stop, [?] for help\n",
      "[swscaler @ 0x7fa658008000] deprecated pixel format used, make sure you did set range correctly\n",
      "Output #0, rawvideo, to 'pipe:':\n",
      "  Metadata:\n",
      "    encoder         : Lavf58.29.100\n",
      "    Stream #0:0: Video: rawvideo (Y800 / 0x30303859), gray, 600x600, q=2-31, 172800 kb/s, 60 fps, 60 tbn, 60 tbc\n",
      "    Metadata:\n",
      "      encoder         : Lavc58.54.100 rawvideo\n",
      "frame= 1000 fps=494 q=-0.0 Lsize=  351562kB time=00:00:16.66 bitrate=172800.0kbits/s speed=8.24x    \n",
      "0.000000%562kB audio:0kB subtitle:0kB other streams:0kB global headers:0kB muxing overhead: frame=  969 fps=480 q=-0.0 size=  340664kB time=00:00:16.15 bitrate=172800.0kbits/s speed=   8x    \n",
      "frame= 1000 fps=488 q=-0.0 Lsize=  351562kB time=00:00:16.66 bitrate=172800.0kbits/s speed=8.13x    \n",
      "video:351562kB audio:0kB subtitle:0kB other streams:0kB global headers:0kB muxing overhead: 0.000000%\n",
      "ffmpeg version 4.2.3 Copyright (c) 2000-2020 the FFmpeg developers\n",
      "  built with clang version 9.0.1\n",
      "  configuration: --prefix=/opt/anaconda3/envs/minian --cc=x86_64-apple-darwin13.4.0-clang --disable-doc --disable-openssl --enable-avresample --enable-gnutls --enable-gpl --enable-hardcoded-tables --enable-libfreetype --enable-libopenh264 --enable-libx264 --enable-pic --enable-pthreads --enable-shared --enable-static --enable-version3 --enable-zlib --enable-libmp3lame\n",
      "  libavutil      56. 31.100 / 56. 31.100\n",
      "  libavcodec     58. 54.100 / 58. 54.100\n",
      "  libavformat    58. 29.100 / 58. 29.100\n",
      "  libavdevice    58.  8.100 / 58.  8.100\n",
      "  libavfilter     7. 57.100 /  7. 57.100\n",
      "  libavresample   4.  0.  0 /  4.  0.  0\n",
      "  libswscale      5.  5.100 /  5.  5.100\n",
      "  libswresample   3.  5.100 /  3.  5.100\n",
      "  libpostproc    55.  5.100 / 55.  5.100\n",
      "Input #0, avi, from '/Users/ahay/Documents/DATA/L1imaging/Gaelle/Baseline_recording/BlackLinesOK/test/V4_Miniscope/8.avi':\n",
      "  Metadata:\n",
      "    encoder         : Lavf58.29.100\n",
      "  Duration: 00:00:16.67, start: 0.000000, bitrate: 5868 kb/s\n",
      "    Stream #0:0: Video: mjpeg (Baseline) (MJPG / 0x47504A4D), yuvj420p(pc, bt470bg/unknown/unknown), 600x600, 5857 kb/s, 60 fps, 60 tbr, 60 tbn, 60 tbc\n",
      "Stream mapping:\n",
      "  Stream #0:0 -> #0:0 (mjpeg (native) -> rawvideo (native))\n",
      "Press [q] to stop, [?] for help\n",
      "[swscaler @ 0x7fee90008000] deprecated pixel format used, make sure you did set range correctly\n",
      "Output #0, rawvideo, to 'pipe:':\n",
      "  Metadata:\n",
      "    encoder         : Lavf58.29.100\n",
      "    Stream #0:0: Video: rawvideo (Y800 / 0x30303859), gray, 600x600, q=2-31, 172800 kb/s, 60 fps, 60 tbn, 60 tbc\n",
      "    Metadata:\n",
      "      encoder         : Lavc58.54.100 rawvideo\n",
      "frame= 1000 fps=484 q=-0.0 Lsize=  351562kB time=00:00:16.66 bitrate=172800.0kbits/s speed=8.07x    \n",
      "video:351562kB audio:0kB subtitle:0kB other streams:0kB global headers:0kB muxing overhead: 0.000000%\n",
      "ffmpeg version 4.2.3 Copyright (c) 2000-2020 the FFmpeg developers\n",
      "  built with clang version 9.0.1\n",
      "  configuration: --prefix=/opt/anaconda3/envs/minian --cc=x86_64-apple-darwin13.4.0-clang --disable-doc --disable-openssl --enable-avresample --enable-gnutls --enable-gpl --enable-hardcoded-tables --enable-libfreetype --enable-libopenh264 --enable-libx264 --enable-pic --enable-pthreads --enable-shared --enable-static --enable-version3 --enable-zlib --enable-libmp3lame\n",
      "  libavutil      56. 31.100 / 56. 31.100\n",
      "  libavcodec     58. 54.100 / 58. 54.100\n",
      "  libavformat    58. 29.100 / 58. 29.100\n",
      "  libavdevice    58.  8.100 / 58.  8.100\n",
      "  libavfilter     7. 57.100 /  7. 57.100\n",
      "  libavresample   4.  0.  0 /  4.  0.  0\n",
      "  libswscale      5.  5.100 /  5.  5.100\n",
      "  libswresample   3.  5.100 /  3.  5.100\n",
      "  libpostproc    55.  5.100 / 55.  5.100\n",
      "Input #0, avi, from '/Users/ahay/Documents/DATA/L1imaging/Gaelle/Baseline_recording/BlackLinesOK/test/V4_Miniscope/7.avi':\n",
      "  Metadata:\n",
      "    encoder         : Lavf58.29.100\n",
      "  Duration: 00:00:16.67, start: 0.000000, bitrate: 6223 kb/s\n",
      "    Stream #0:0: Video: mjpeg (Baseline) (MJPG / 0x47504A4D), yuvj420p(pc, bt470bg/unknown/unknown), 600x600, 6212 kb/s, 60 fps, 60 tbr, 60 tbn, 60 tbc\n",
      "Stream mapping:\n",
      "  Stream #0:0 -> #0:0 (mjpeg (native) -> rawvideo (native))\n",
      "Press [q] to stop, [?] for help\n",
      "[swscaler @ 0x7fc630098000] deprecated pixel format used, make sure you did set range correctly\n",
      "Output #0, rawvideo, to 'pipe:':\n",
      "  Metadata:\n",
      "    encoder         : Lavf58.29.100\n",
      "    Stream #0:0: Video: rawvideo (Y800 / 0x30303859), gray, 600x600, q=2-31, 172800 kb/s, 60 fps, 60 tbn, 60 tbc\n",
      "    Metadata:\n",
      "      encoder         : Lavc58.54.100 rawvideo\n",
      "ffmpeg version 4.2.3 Copyright (c) 2000-2020 the FFmpeg developers\n",
      "  built with clang version 9.0.1\n",
      "  configuration: --prefix=/opt/anaconda3/envs/minian --cc=x86_64-apple-darwin13.4.0-clang --disable-doc --disable-openssl --enable-avresample --enable-gnutls --enable-gpl --enable-hardcoded-tables --enable-libfreetype --enable-libopenh264 --enable-libx264 --enable-pic --enable-pthreads --enable-shared --enable-static --enable-version3 --enable-zlib --enable-libmp3lame\n",
      "  libavutil      56. 31.100 / 56. 31.100\n",
      "  libavcodec     58. 54.100 / 58. 54.100\n",
      "  libavformat    58. 29.100 / 58. 29.100\n",
      "  libavdevice    58.  8.100 / 58.  8.100\n",
      "  libavfilter     7. 57.100 /  7. 57.100\n",
      "  libavresample   4.  0.  0 /  4.  0.  0\n",
      "  libswscale      5.  5.100 /  5.  5.100\n",
      "  libswresample   3.  5.100 /  3.  5.100\n",
      "  libpostproc    55.  5.100 / 55.  5.100\n",
      "Input #0, avi, from '/Users/ahay/Documents/DATA/L1imaging/Gaelle/Baseline_recording/BlackLinesOK/test/V4_Miniscope/9.avi':\n",
      "  Metadata:\n",
      "    encoder         : Lavf58.29.100\n",
      "  Duration: 00:00:16.67, start: 0.000000, bitrate: 5833 kb/s\n",
      "    Stream #0:0: Video: mjpeg (Baseline) (MJPG / 0x47504A4D), yuvj420p(pc, bt470bg/unknown/unknown), 600x600, 5822 kb/s, 60 fps, 60 tbr, 60 tbn, 60 tbc\n",
      "Stream mapping:\n",
      "  Stream #0:0 -> #0:0 (mjpeg (native) -> rawvideo (native))\n",
      "Press [q] to stop, [?] for help\n",
      "[swscaler @ 0x7fa1f0008000] deprecated pixel format used, make sure you did set range correctly\n",
      "Output #0, rawvideo, to 'pipe:':\n",
      "  Metadata:\n",
      "    encoder         : Lavf58.29.100\n",
      "    Stream #0:0: Video: rawvideo (Y800 / 0x30303859), gray, 600x600, q=2-31, 172800 kb/s, 60 fps, 60 tbn, 60 tbc\n",
      "    Metadata:\n",
      "      encoder         : Lavc58.54.100 rawvideo\n",
      "frame= 1000 fps=459 q=-0.0 Lsize=  351562kB time=00:00:16.66 bitrate=172800.0kbits/s speed=7.65x    \n",
      "video:351562kB audio:0kB subtitle:0kB other streams:0kB global headers:0kB muxing overhead: 0.000000%\n",
      "frame= 1000 fps=631 q=-0.0 Lsize=  351562kB time=00:00:16.66 bitrate=172800.0kbits/s speed=10.5x    \n",
      "video:351562kB audio:0kB subtitle:0kB other streams:0kB global headers:0kB muxing overhead: 0.000000%\n",
      "frame= 1000 fps=642 q=-0.0 Lsize=  351562kB time=00:00:16.66 bitrate=172800.0kbits/s speed=10.7x    \n",
      "video:351562kB audio:0kB subtitle:0kB other streams:0kB global headers:0kB muxing overhead: 0.000000%\n",
      "frame= 1000 fps=656 q=-0.0 Lsize=  351562kB time=00:00:16.66 bitrate=172800.0kbits/s speed=10.9x    \n",
      "video:351562kB audio:0kB subtitle:0kB other streams:0kB global headers:0kB muxing overhead: 0.000000%\n"
     ]
    }
   ],
   "source": [
    "varr = load_videos(dpath, **param_load_videos)\n",
    "chk, _ = get_optimal_chk(varr, dtype=float)\n",
    "\n",
    "\n",
    "varr = save_minian(\n",
    "    varr.chunk({\"frame\": chk[\"frame\"], \"height\": -1, \"width\": -1}).rename(\"varr\"),\n",
    "    intpath,\n",
    "    overwrite=True,\n",
    ")\n",
    "\n",
    "varr_ref = varr.sel(height=slice(0, 600), width=slice(0, 600))"
   ]
  },
  {
   "cell_type": "markdown",
   "metadata": {},
   "source": [
    "# Clean up"
   ]
  },
  {
   "cell_type": "code",
   "execution_count": 26,
   "metadata": {},
   "outputs": [
    {
     "name": "stderr",
     "output_type": "stream",
     "text": [
      "UsageError: Line magic function `%%time` not found.\n"
     ]
    }
   ],
   "source": [
    "# Glow removal\n",
    "\n",
    "varr_min = varr_ref.min(\"frame\").compute()\n",
    "varr_ref = varr_ref - varr_min\n",
    "\n",
    "# Denoise\n",
    "varr_ref = denoise(varr_ref, **param_denoise)\n",
    "\n",
    "# Background removal\n",
    "varr_ref = remove_background(varr_ref, **param_background_removal)\n",
    "\n",
    "# Save results\n",
    "%%time\n",
    "varr_ref = save_minian(varr_ref.rename(\"varr_ref\"), dpath=intpath, overwrite=True)"
   ]
  },
  {
   "cell_type": "markdown",
   "metadata": {},
   "source": [
    "# Motion correction"
   ]
  },
  {
   "cell_type": "code",
   "execution_count": 28,
   "metadata": {},
   "outputs": [],
   "source": [
    "# Estimation motion\n",
    "\n",
    "motion = estimate_motion(varr_ref.sel(subset_mc), **param_estimate_motion)\n",
    "\n",
    "# Save motion\n",
    "\n",
    "motion = save_minian(\n",
    "    motion.rename(\"motion\").chunk({\"frame\": chk[\"frame\"]}), **param_save_minian\n",
    ")"
   ]
  },
  {
   "cell_type": "markdown",
   "metadata": {},
   "source": [
    "# Apply transform"
   ]
  },
  {
   "cell_type": "code",
   "execution_count": 29,
   "metadata": {},
   "outputs": [
    {
     "name": "stderr",
     "output_type": "stream",
     "text": [
      "ffmpeg version 4.2.3 Copyright (c) 2000-2020 the FFmpeg developers\n",
      "  built with clang version 9.0.1\n",
      "  configuration: --prefix=/opt/anaconda3/envs/minian --cc=x86_64-apple-darwin13.4.0-clang --disable-doc --disable-openssl --enable-avresample --enable-gnutls --enable-gpl --enable-hardcoded-tables --enable-libfreetype --enable-libopenh264 --enable-libx264 --enable-pic --enable-pthreads --enable-shared --enable-static --enable-version3 --enable-zlib --enable-libmp3lame\n",
      "  libavutil      56. 31.100 / 56. 31.100\n",
      "  libavcodec     58. 54.100 / 58. 54.100\n",
      "  libavformat    58. 29.100 / 58. 29.100\n",
      "  libavdevice    58.  8.100 / 58.  8.100\n",
      "  libavfilter     7. 57.100 /  7. 57.100\n",
      "  libavresample   4.  0.  0 /  4.  0.  0\n",
      "  libswscale      5.  5.100 /  5.  5.100\n",
      "  libswresample   3.  5.100 /  3.  5.100\n",
      "  libpostproc    55.  5.100 / 55.  5.100\n",
      "Input #0, rawvideo, from 'pipe:':\n",
      "  Duration: N/A, start: 0.000000, bitrate: 72000 kb/s\n",
      "    Stream #0:0: Video: rawvideo (Y800 / 0x30303859), gray, 600x600, 72000 kb/s, 25 tbr, 25 tbn, 25 tbc\n",
      "Stream mapping:\n",
      "  Stream #0:0 (rawvideo) -> pad\n",
      "  pad -> Stream #0:0 (libx264)\n",
      "[libx264 @ 0x7f890a00e200] using cpu capabilities: MMX2 SSE2Fast SSSE3 SSE4.2\n",
      "[libx264 @ 0x7f890a00e200] profile Constrained Baseline, level 3.1\n",
      "[libx264 @ 0x7f890a00e200] 264 - core 152 - H.264/MPEG-4 AVC codec - Copyleft 2003-2017 - http://www.videolan.org/x264.html - options: cabac=0 ref=1 deblock=0:0:0 analyse=0:0 me=dia subme=0 psy=1 psy_rd=1.00:0.00 mixed_ref=0 me_range=16 chroma_me=1 trellis=0 8x8dct=0 cqm=0 deadzone=21,11 fast_pskip=1 chroma_qp_offset=0 threads=12 lookahead_threads=2 sliced_threads=0 nr=0 decimate=1 interlaced=0 bluray_compat=0 constrained_intra=0 bframes=0 weightp=0 keyint=250 keyint_min=25 scenecut=0 intra_refresh=0 rc=crf mbtree=0 crf=18.0 qcomp=0.60 qpmin=0 qpmax=69 qpstep=4 ip_ratio=1.40 aq=0\n",
      "Output #0, mp4, to '/Users/ahay/Documents/DATA/L1imaging/Gaelle/Baseline_recording/BlackLinesOK/test/V4_Miniscope/minian_mc.mp4':\n",
      "  Metadata:\n",
      "    encoder         : Lavf58.29.100\n",
      "    Stream #0:0: Video: h264 (libx264) (avc1 / 0x31637661), yuv420p, 600x600, q=-1--1, 30 fps, 15360 tbn, 30 tbc\n",
      "    Metadata:\n",
      "      encoder         : Lavc58.54.100 libx264\n",
      "    Side data:\n",
      "      cpb: bitrate max/min/avg: 0/0/0 buffer size: 0 vbv_delay: -1\n",
      "More than 1000 frames duplicated   99328kB time=00:03:17.60 bitrate=4117.9kbits/s dup=990 drop=0 speed=10.8x    \n",
      "frame=13200 fps=327 q=-1.0 Lsize=  220763kB time=00:07:19.96 bitrate=4110.5kbits/s dup=2200 drop=0 speed=10.9x    \n",
      "video:220708kB audio:0kB subtitle:0kB other streams:0kB global headers:0kB muxing overhead: 0.024891%\n",
      "[libx264 @ 0x7f890a00e200] frame I:53    Avg QP:15.53  size: 32608\n",
      "[libx264 @ 0x7f890a00e200] frame P:13147 Avg QP:18.48  size: 17059\n",
      "[libx264 @ 0x7f890a00e200] mb I  I16..4: 100.0%  0.0%  0.0%\n",
      "[libx264 @ 0x7f890a00e200] mb P  I16..4: 44.1%  0.0%  0.0%  P16..4: 48.9%  0.0%  0.0%  0.0%  0.0%    skip: 7.0%\n",
      "[libx264 @ 0x7f890a00e200] coded y,uvDC,uvAC intra: 97.8% 0.0% 0.0% inter: 64.4% 0.0% 0.0%\n",
      "[libx264 @ 0x7f890a00e200] i16 v,h,dc,p: 23% 23% 44% 10%\n",
      "[libx264 @ 0x7f890a00e200] i8c dc,h,v,p: 100%  0%  0%  0%\n",
      "[libx264 @ 0x7f890a00e200] kb/s:4109.17\n"
     ]
    },
    {
     "data": {
      "text/plain": [
       "'/Users/ahay/Documents/DATA/L1imaging/Gaelle/Baseline_recording/BlackLinesOK/test/V4_Miniscope/minian_mc.mp4'"
      ]
     },
     "execution_count": 29,
     "metadata": {},
     "output_type": "execute_result"
    }
   ],
   "source": [
    "Y = apply_transform(varr_ref, motion, fill=0)\n",
    "\n",
    "\n",
    "Y_fm_chk = save_minian(Y.astype(float).rename(\"Y_fm_chk\"), intpath, overwrite=True)\n",
    "Y_hw_chk = save_minian(\n",
    "    Y_fm_chk.rename(\"Y_hw_chk\"),\n",
    "    intpath,\n",
    "    overwrite=True,\n",
    "    chunks={\"frame\": -1, \"height\": chk[\"height\"], \"width\": chk[\"width\"]},\n",
    ")\n",
    "\n",
    "\n",
    "vid_arr = xr.concat([varr_ref, Y_fm_chk], \"width\").chunk({\"width\": -1})\n",
    "write_video(Y_fm_chk, \"minian_mc.mp4\", dpath)"
   ]
  },
  {
   "cell_type": "markdown",
   "metadata": {},
   "source": [
    "# Initialisation "
   ]
  },
  {
   "cell_type": "code",
   "execution_count": 35,
   "metadata": {},
   "outputs": [
    {
     "name": "stdout",
     "output_type": "stream",
     "text": [
      "constructing chunks\n",
      "computing max projections\n",
      "calculating local maximum\n",
      "selecting seeds\n",
      "computing peak-noise ratio\n",
      "selecting seeds\n",
      "performing KS test\n",
      "computing distance\n",
      "computing correlations\n",
      "pixel recompute ratio: 1.0018437427978797\n",
      "computing correlations\n",
      "merging seeds\n",
      "optimizing computation graph\n",
      "pixel recompute ratio: 1.150920150920151\n",
      "computing correlations\n",
      "building spatial matrix\n",
      "computing spatial overlap\n",
      "computing temporal correlation\n",
      "pixel recompute ratio: 0.2619047619047619\n",
      "computing correlations\n",
      "labeling units to be merged\n",
      "merging units\n"
     ]
    }
   ],
   "source": [
    "# Compute maximal projection\n",
    "max_proj = save_minian(\n",
    "    Y_fm_chk.max(\"frame\").rename(\"max_proj\"), **param_save_minian\n",
    ").compute()\n",
    "\n",
    "# Generating seeds\n",
    "\n",
    "seeds = seeds_init(Y_fm_chk, **param_seeds_init)\n",
    "\n",
    "# Noise refined \n",
    "    # here there is possibility to visualise to refine param_pnr_refine but noise_freq = 0.06 is generally fine\n",
    "\n",
    "seeds, pnr, gmm = pnr_refine(Y_hw_chk, seeds, **param_pnr_refine)\n",
    "\n",
    "# Refine using KS test to look at bimodal distribution\n",
    "seeds = ks_refine(Y_hw_chk, seeds, **param_ks_refine)\n",
    "\n",
    "# Merge seeds\n",
    "seeds_final = seeds[seeds[\"mask_ks\"] & seeds[\"mask_pnr\"]].reset_index(drop=True)\n",
    "seeds_final = seeds_merge(Y_hw_chk, max_proj, seeds_final, **param_seeds_merge)\n",
    "\n",
    "# Initialise spatial matrix\n",
    "\n",
    "A_init = initA(Y_hw_chk, seeds_final[seeds_final[\"mask_mrg\"]], **param_initialize)\n",
    "A_init = save_minian(A_init.rename(\"A_init\"), intpath, overwrite=True)\n",
    "\n",
    "# Initialise temporal matrix\n",
    "C_init = initC(Y_fm_chk, A_init)\n",
    "C_init = save_minian(\n",
    "    C_init.rename(\"C_init\"), intpath, overwrite=True, chunks={\"unit_id\": 1, \"frame\": -1}\n",
    ")\n",
    "\n",
    "# Merge unit\n",
    "A, C = unit_merge(A_init, C_init, **param_init_merge)\n",
    "A = save_minian(A.rename(\"A\"), intpath, overwrite=True)\n",
    "C = save_minian(C.rename(\"C\"), intpath, overwrite=True)\n",
    "C_chk = save_minian(\n",
    "    C.rename(\"C_chk\"),\n",
    "    intpath,\n",
    "    overwrite=True,\n",
    "    chunks={\"unit_id\": -1, \"frame\": chk[\"frame\"]},\n",
    ")\n",
    "\n",
    "# Initialise background terms\n",
    "b, f = update_background(Y_fm_chk, A, C_chk)\n",
    "f = save_minian(f.rename(\"f\"), intpath, overwrite=True)\n",
    "b = save_minian(b.rename(\"b\"), intpath, overwrite=True)\n"
   ]
  },
  {
   "cell_type": "markdown",
   "metadata": {},
   "source": [
    "# CNMF"
   ]
  },
  {
   "cell_type": "code",
   "execution_count": 36,
   "metadata": {},
   "outputs": [
    {
     "name": "stdout",
     "output_type": "stream",
     "text": [
      "estimating penalty parameter\n",
      "computing subsetting matrix\n",
      "fitting spatial matrix\n",
      "3 out of 10 units dropped\n",
      "estimating penalty parameter\n",
      "computing subsetting matrix\n",
      "fitting spatial matrix\n",
      "9 out of 10 units dropped\n",
      "estimating penalty parameter\n",
      "computing subsetting matrix\n",
      "fitting spatial matrix\n",
      "10 out of 10 units dropped\n",
      "estimating penalty parameter\n",
      "computing subsetting matrix\n",
      "fitting spatial matrix\n",
      "10 out of 10 units dropped\n"
     ]
    }
   ],
   "source": [
    "\n",
    "# Estimate spatial noise\n",
    "sn_spatial = get_noise_fft(Y_hw_chk, **param_get_noise)\n",
    "sn_spatial = save_minian(sn_spatial.rename(\"sn_spatial\"), intpath, overwrite=True)\n",
    "\n",
    "if interactive:\n",
    "    units = np.random.choice(A.coords[\"unit_id\"], 10, replace=False)\n",
    "    units.sort()\n",
    "    A_sub = A.sel(unit_id=units).persist()\n",
    "    C_sub = C.sel(unit_id=units).persist()\n",
    "\n",
    "\n",
    "# First spatial update\n",
    "    # Here is the only interactive mandatory step to adjust sparse penalty [generally set between 0.01 and 0.02]\n",
    "if interactive:\n",
    "    sprs_ls = [0.01, 0.012, 0.014, 0.016]\n",
    "    A_dict = dict()\n",
    "    C_dict = dict()\n",
    "    for cur_sprs in sprs_ls:\n",
    "        cur_A, cur_mask, cur_norm = update_spatial(\n",
    "            Y_hw_chk,\n",
    "            A_sub,\n",
    "            C_sub,\n",
    "            sn_spatial,\n",
    "            in_memory=True,\n",
    "            dl_wnd=param_first_spatial[\"dl_wnd\"],\n",
    "            sparse_penal=cur_sprs,\n",
    "        )\n",
    "        if cur_A.sizes[\"unit_id\"]:\n",
    "            A_dict[cur_sprs] = cur_A.compute()\n",
    "            C_dict[cur_sprs] = C_sub.sel(unit_id=cur_mask).compute()\n",
    "    hv_res = visualize_spatial_update(A_dict, C_dict, kdims=[\"sparse penalty\"])"
   ]
  },
  {
   "cell_type": "code",
   "execution_count": null,
   "metadata": {},
   "outputs": [],
   "source": [
    "# Spatial updates\n",
    "A_new, mask, norm_fac = update_spatial(\n",
    "    Y_hw_chk, A, C, sn_spatial, **param_first_spatial\n",
    ")\n",
    "C_new = save_minian(\n",
    "    (C.sel(unit_id=mask) * norm_fac).rename(\"C_new\"), intpath, overwrite=True\n",
    ")\n",
    "C_chk_new = save_minian(\n",
    "    (C_chk.sel(unit_id=mask) * norm_fac).rename(\"C_chk_new\"), intpath, overwrite=True\n",
    ")\n",
    "\n",
    "# Background updates\n",
    "b_new, f_new = update_background(Y_fm_chk, A_new, C_chk_new)\n",
    "\n",
    "# Save results first spatial update\n",
    "A = save_minian(\n",
    "    A_new.rename(\"A\"),\n",
    "    intpath,\n",
    "    overwrite=True,\n",
    "    chunks={\"unit_id\": 1, \"height\": -1, \"width\": -1},\n",
    ")\n",
    "b = save_minian(b_new.rename(\"b\"), intpath, overwrite=True)\n",
    "f = save_minian(\n",
    "    f_new.chunk({\"frame\": chk[\"frame\"]}).rename(\"f\"), intpath, overwrite=True\n",
    ")\n",
    "C = save_minian(C_new.rename(\"C\"), intpath, overwrite=True)\n",
    "C_chk = save_minian(C_chk_new.rename(\"C_chk\"), intpath, overwrite=True)\n",
    "print(A)\n",
    "\n",
    "# First temporal update\n",
    "YrA = save_minian(\n",
    "    compute_trace(Y_fm_chk, A, b, C_chk, f).rename(\"YrA\"),\n",
    "    intpath,\n",
    "    overwrite=True,\n",
    "    chunks={\"unit_id\": 1, \"frame\": -1},\n",
    ")\n",
    "\n",
    "# Spike extraction\n",
    "C_new, S_new, b0_new, c0_new, g, mask = update_temporal(\n",
    "    A, C, YrA=YrA, **param_first_temporal\n",
    ")\n",
    "\n",
    "# Save results\n",
    "C = save_minian(\n",
    "    C_new.rename(\"C\").chunk({\"unit_id\": 1, \"frame\": -1}), intpath, overwrite=True\n",
    ")\n",
    "C_chk = save_minian(\n",
    "    C.rename(\"C_chk\"),\n",
    "    intpath,\n",
    "    overwrite=True,\n",
    "    chunks={\"unit_id\": -1, \"frame\": chk[\"frame\"]},\n",
    ")\n",
    "S = save_minian(\n",
    "    S_new.rename(\"S\").chunk({\"unit_id\": 1, \"frame\": -1}), intpath, overwrite=True\n",
    ")\n",
    "b0 = save_minian(\n",
    "    b0_new.rename(\"b0\").chunk({\"unit_id\": 1, \"frame\": -1}), intpath, overwrite=True\n",
    ")\n",
    "c0 = save_minian(\n",
    "    c0_new.rename(\"c0\").chunk({\"unit_id\": 1, \"frame\": -1}), intpath, overwrite=True\n",
    ")\n",
    "A = A.sel(unit_id=C.coords[\"unit_id\"].values)\n",
    "\n",
    "# Merge units\n",
    "A_mrg, C_mrg, [sig_mrg] = unit_merge(A, C, [C + b0 + c0], **param_first_merge)\n",
    "\n",
    "# Save merged units\n",
    "A = save_minian(A_mrg.rename(\"A_mrg\"), intpath, overwrite=True)\n",
    "C = save_minian(C_mrg.rename(\"C_mrg\"), intpath, overwrite=True)\n",
    "C_chk = save_minian(\n",
    "    C.rename(\"C_mrg_chk\"),\n",
    "    intpath,\n",
    "    overwrite=True,\n",
    "    chunks={\"unit_id\": -1, \"frame\": chk[\"frame\"]},\n",
    ")\n",
    "sig = save_minian(sig_mrg.rename(\"sig_mrg\"), intpath, overwrite=True)\n"
   ]
  },
  {
   "cell_type": "markdown",
   "metadata": {},
   "source": [
    "# Second spatial and temporal updates"
   ]
  },
  {
   "cell_type": "code",
   "execution_count": null,
   "metadata": {},
   "outputs": [],
   "source": [
    "# Spatial update, generally not much happens at that stage.\n",
    "A_new, mask, norm_fac = update_spatial(\n",
    "    Y_hw_chk, A, C, sn_spatial, **param_second_spatial\n",
    ")\n",
    "C_new = save_minian(\n",
    "    (C.sel(unit_id=mask) * norm_fac).rename(\"C_new\"), intpath, overwrite=True\n",
    ")\n",
    "C_chk_new = save_minian(\n",
    "    (C_chk.sel(unit_id=mask) * norm_fac).rename(\"C_chk_new\"), intpath, overwrite=True\n",
    ")\n",
    "\n",
    "# Update background\n",
    "b_new, f_new = update_background(Y_fm_chk, A_new, C_chk_new)\n",
    "\n",
    "# Save spatial update\n",
    "A = save_minian(\n",
    "    A_new.rename(\"A\"),\n",
    "    intpath,\n",
    "    overwrite=True,\n",
    "    chunks={\"unit_id\": 1, \"height\": -1, \"width\": -1},\n",
    ")\n",
    "b = save_minian(b_new.rename(\"b\"), intpath, overwrite=True)\n",
    "f = save_minian(\n",
    "    f_new.chunk({\"frame\": chk[\"frame\"]}).rename(\"f\"), intpath, overwrite=True\n",
    ")\n",
    "C = save_minian(C_new.rename(\"C\"), intpath, overwrite=True)\n",
    "C_chk = save_minian(C_chk_new.rename(\"C_chk\"), intpath, overwrite=True)\n",
    "\n",
    "# Second temporal update\n",
    "YrA = save_minian(\n",
    "    compute_trace(Y_fm_chk, A, b, C_chk, f).rename(\"YrA\"),\n",
    "    intpath,\n",
    "    overwrite=True,\n",
    "    chunks={\"unit_id\": 1, \"frame\": -1},\n",
    ")\n",
    "\n",
    "C_new, S_new, b0_new, c0_new, g, mask = update_temporal(\n",
    "    A, C, YrA=YrA, **param_second_temporal\n",
    ")\n",
    "\n",
    "# Save all\n",
    "C = save_minian(\n",
    "    C_new.rename(\"C\").chunk({\"unit_id\": 1, \"frame\": -1}), intpath, overwrite=True\n",
    ")\n",
    "C_chk = save_minian(\n",
    "    C.rename(\"C_chk\"),\n",
    "    intpath,\n",
    "    overwrite=True,\n",
    "    chunks={\"unit_id\": -1, \"frame\": chk[\"frame\"]},\n",
    ")\n",
    "S = save_minian(\n",
    "    S_new.rename(\"S\").chunk({\"unit_id\": 1, \"frame\": -1}), intpath, overwrite=True\n",
    ")\n",
    "b0 = save_minian(\n",
    "    b0_new.rename(\"b0\").chunk({\"unit_id\": 1, \"frame\": -1}), intpath, overwrite=True\n",
    ")\n",
    "c0 = save_minian(\n",
    "    c0_new.rename(\"c0\").chunk({\"unit_id\": 1, \"frame\": -1}), intpath, overwrite=True\n",
    ")\n",
    "A = A.sel(unit_id=C.coords[\"unit_id\"].values)"
   ]
  },
  {
   "cell_type": "markdown",
   "metadata": {},
   "source": [
    "# Generate videos and close \n",
    "\n",
    "!!!!! Only if cnmfviewer has been used"
   ]
  },
  {
   "cell_type": "code",
   "execution_count": null,
   "metadata": {},
   "outputs": [],
   "source": [
    "# Generate video\n",
    "varr = varr_ref\n",
    "\n",
    "generate_videos(varr.sel(subset), Y_fm_chk, A=A, C=C_chk, vpath=dpath)\n",
    "\n",
    "# Generate labels\n",
    "if interactive:\n",
    "    A = A.assign_coords(unit_labels=(\"unit_id\", cnmfviewer.unit_labels))\n",
    "    C = C.assign_coords(unit_labels=(\"unit_id\", cnmfviewer.unit_labels))\n",
    "    S = S.assign_coords(unit_labels=(\"unit_id\", cnmfviewer.unit_labels))\n",
    "    c0 = c0.assign_coords(unit_labels=(\"unit_id\", cnmfviewer.unit_labels))\n",
    "    b0 = b0.assign_coords(unit_labels=(\"unit_id\", cnmfviewer.unit_labels))\n",
    "\n",
    "# Save final\n",
    "A = save_minian(A.rename(\"A\"), **param_save_minian)\n",
    "C = save_minian(C.rename(\"C\"), **param_save_minian)\n",
    "S = save_minian(S.rename(\"S\"), **param_save_minian)\n",
    "c0 = save_minian(c0.rename(\"c0\"), **param_save_minian)\n",
    "b0 = save_minian(b0.rename(\"b0\"), **param_save_minian)\n",
    "b = save_minian(b.rename(\"b\"), **param_save_minian)\n",
    "f = save_minian(f.rename(\"f\"), **param_save_minian)\n",
    "\n",
    "# Close cluster\n",
    "client.close()\n",
    "cluster.close()"
   ]
  }
 ],
 "metadata": {
  "kernelspec": {
   "display_name": "Python 3.8.12 ('minian')",
   "language": "python",
   "name": "python3"
  },
  "language_info": {
   "codemirror_mode": {
    "name": "ipython",
    "version": 3
   },
   "file_extension": ".py",
   "mimetype": "text/x-python",
   "name": "python",
   "nbconvert_exporter": "python",
   "pygments_lexer": "ipython3",
   "version": "3.8.12"
  },
  "orig_nbformat": 4,
  "vscode": {
   "interpreter": {
    "hash": "d28f0aa69d972f186b6eef62f149b885b857325c1e4e259a67006c9c0c737cc7"
   }
  }
 },
 "nbformat": 4,
 "nbformat_minor": 2
}
